<?xml version="1.0" standalone="no"?>
<!DOCTYPE svg PUBLIC "-//W3C//DTD SVG 20010904//EN"
 "http://www.w3.org/TR/2001/REC-SVG-20010904/DTD/svg10.dtd">
<svg version="1.0" xmlns="http://www.w3.org/2000/svg"
 width="1024.000000pt" height="1024.000000pt" viewBox="0 0 1024.000000 1024.000000"
 preserveAspectRatio="xMidYMid meet">

<g transform="translate(0.000000,1024.000000) scale(0.100000,-0.100000)"
fill="#000000" stroke="none">
<path d="M0 5120 l0 -5120 5120 0 5120 0 0 5120 0 5120 -5120 0 -5120 0 0
-5120z m6138 2500 c252 -71 445 -270 507 -523 20 -86 21 -251 0 -332 -35 -139
-129 -284 -243 -377 l-54 -43 178 -3 c115 -2 182 -7 191 -14 12 -9 14 -77 11
-381 l-3 -369 -24 -19 c-15 -12 -39 -19 -67 -19 l-44 0 0 -48 c0 -90 13 -87
-324 -90 l-296 -3 0 36 0 35 264 0 c258 0 265 1 271 20 15 48 0 51 -274 49
l-256 -1 -3 86 -3 86 346 0 345 0 0 280 0 280 -350 0 -350 0 0 35 0 35 100 0
c121 0 176 18 272 90 99 75 175 182 220 310 29 81 35 237 14 333 -92 410 -551
617 -931 419 -133 -69 -277 -242 -301 -360 -6 -28 -4 -32 22 -37 189 -38 294
-84 370 -159 62 -62 98 -122 120 -201 16 -55 18 -162 22 -1273 l4 -1212 24 -6
c13 -3 133 -4 266 -2 228 5 248 6 332 32 335 101 540 307 587 589 l13 77 43 0
43 0 0 -358 c0 -198 3 -393 6 -435 l7 -77 -1007 0 -1006 0 0 40 0 40 46 0 c56
0 79 12 101 53 17 30 18 99 15 1152 l-3 1120 -29 55 c-53 104 -82 214 -87 342
-5 110 -7 117 -27 120 -11 2 -20 6 -18 11 1 4 2 27 2 52 0 43 1 45 29 45 25 0
30 5 35 35 10 52 80 183 129 243 98 119 268 226 397 251 30 6 64 13 75 15 44
11 223 -4 293 -24z m-3234 -150 c302 -25 495 -124 555 -285 49 -130 54 -184
54 -585 l0 -375 -89 -48 c-119 -65 -264 -163 -349 -236 -38 -34 -72 -61 -75
-61 -3 0 -5 141 -5 313 0 171 -2 481 -5 687 -5 368 -5 376 -28 411 -29 48 -68
65 -172 78 -46 6 -85 11 -85 11 -2 0 7 77 10 88 5 14 33 15 189 2z m3219 -143
c360 -171 327 -700 -52 -817 -65 -20 -121 -26 -121 -12 0 4 27 13 61 19 226
43 375 256 338 485 -59 366 -538 474 -757 172 -48 -65 -67 -72 -36 -12 25 47
112 129 170 158 79 39 132 50 229 47 81 -2 99 -7 168 -40z m-99 -12 c88 -19
139 -49 209 -124 74 -80 100 -148 101 -261 0 -76 -3 -93 -33 -157 -57 -124
-177 -215 -300 -230 -65 -7 -69 12 -5 21 68 9 165 61 215 114 l44 47 -45 -41
c-65 -60 -184 -113 -252 -114 -32 0 -19 18 19 25 43 8 146 45 140 51 -2 2 -29
-5 -60 -16 -61 -21 -117 -26 -117 -10 0 6 15 10 33 10 71 1 188 82 223 155 8
17 9 21 2 10 -7 -11 -36 -43 -64 -71 -50 -50 -118 -84 -170 -84 -42 0 -34 17
11 23 25 4 62 15 83 26 47 24 118 100 139 149 21 47 21 156 1 203 -54 126
-213 188 -339 132 -46 -21 -129 -87 -129 -104 0 -5 18 9 40 30 105 102 252
110 354 19 158 -138 70 -403 -146 -442 -21 -4 -39 -2 -43 4 -4 6 4 10 18 10
48 0 121 34 162 75 111 111 92 289 -39 370 -42 26 -59 30 -115 30 -80 -1 -129
-24 -189 -89 -46 -50 -55 -56 -45 -28 6 15 5 15 -10 3 -33 -27 -16 8 27 56 30
33 66 59 107 78 54 24 71 27 133 23 40 -3 62 -2 51 3 -37 14 -124 9 -177 -11
-53 -20 -115 -70 -156 -125 -16 -22 -21 -26 -22 -12 0 9 26 43 59 76 68 68
132 95 227 94 62 0 137 -26 179 -61 20 -17 20 -17 2 5 -32 37 -114 66 -192 66
-98 1 -159 -28 -234 -109 -58 -63 -71 -73 -71 -54 0 18 120 137 150 150 17 7
28 15 26 18 -12 11 -98 -52 -147 -109 -53 -61 -74 -67 -45 -12 18 35 91 106
131 126 17 9 25 16 19 17 -24 0 -108 -66 -146 -117 -43 -57 -60 -64 -34 -15
43 83 161 163 266 181 77 12 77 12 154 -4z m38 -186 c72 -37 126 -142 114
-223 -15 -99 -106 -184 -207 -194 -48 -4 -49 -4 -49 25 0 48 -66 173 -122 229
-43 45 -48 54 -39 72 19 35 100 100 139 110 47 14 116 5 164 -19z m1438 -686
c0 -87 3 -352 7 -588 6 -399 5 -432 -11 -448 -22 -21 -34 -19 -201 46 -143 54
-153 60 -166 94 -7 19 -16 23 -53 23 -83 0 -76 -35 -76 406 0 307 3 396 13
399 6 2 33 6 59 10 41 5 47 9 53 34 9 42 28 55 171 114 160 67 154 65 182 66
22 1 22 0 22 -156z m-525 -131 c6 -4 9 -129 7 -350 l-3 -343 -112 3 -112 3 -3
342 -2 342 102 4 c57 1 105 4 108 5 3 1 10 -2 15 -6z m-2678 -67 c258 -42 459
-176 552 -367 22 -46 51 -120 63 -164 21 -77 22 -96 28 -774 5 -640 6 -698 22
-723 22 -33 44 -44 97 -53 41 -7 41 -7 41 -50 0 -23 -4 -45 -9 -48 -16 -10
-203 13 -284 35 -182 50 -290 177 -348 412 -26 104 -38 365 -38 838 -1 311 -3
354 -21 423 -26 103 -75 192 -124 228 -115 83 -356 89 -584 13 -583 -195 -912
-657 -854 -1203 7 -69 21 -134 37 -178 24 -64 27 -114 6 -114 -18 0 -86 117
-118 201 -43 115 -57 209 -50 349 7 144 32 244 96 375 130 267 361 487 681
649 170 87 333 139 495 159 75 10 228 6 312 -8z m1919 -63 c93 -48 138 -149
114 -257 -29 -132 -126 -189 -276 -165 -82 13 -94 22 -94 66 0 37 10 43 31 17
21 -24 89 -53 129 -53 78 0 163 66 176 136 18 95 -22 179 -100 215 -74 34
-145 21 -208 -39 l-28 -26 0 56 0 56 53 11 c72 14 156 7 203 -17z m-21 -81
c101 -58 96 -210 -9 -260 -52 -26 -79 -26 -132 -2 -84 38 -113 117 -72 199 42
84 130 111 213 63z m-2678 -1051 c2 -688 4 -764 19 -796 21 -44 68 -69 160
-85 38 -7 70 -13 72 -15 2 -1 -2 -20 -8 -43 l-11 -41 -499 0 -499 0 -10 38
c-15 52 -15 52 27 52 59 0 135 27 164 57 51 55 52 73 53 563 l1 455 26 67 c52
138 158 272 300 381 68 52 185 127 197 127 3 0 7 -342 8 -760z m-1560 -1640
c91 0 96 -1 124 -29 24 -24 29 -38 29 -76 0 -40 -5 -52 -34 -81 -32 -32 -38
-34 -105 -34 -78 0 -75 3 -71 -72 2 -38 2 -38 -39 -38 l-41 0 0 163 c0 90 3
167 7 171 4 3 13 4 21 1 7 -3 56 -5 109 -5z m1384 -17 c108 -63 111 -218 6
-297 -41 -30 -141 -34 -200 -8 -63 28 -87 69 -87 150 0 89 38 150 106 172 43
14 139 5 175 -17z m530 17 l119 0 0 -30 c0 -28 -1 -29 -57 -32 l-58 -3 1 -132
0 -133 -38 0 -38 0 0 135 0 135 -60 0 c-59 0 -60 0 -60 28 0 37 9 45 44 38 16
-3 82 -6 147 -6z m673 -13 c57 -32 79 -67 84 -135 5 -73 -14 -120 -64 -158
-34 -26 -45 -29 -113 -29 -61 0 -83 4 -111 22 -112 70 -97 256 25 309 49 21
134 17 179 -9z m651 12 c61 -15 74 -33 46 -63 l-22 -23 -37 18 c-96 50 -183
-9 -169 -114 8 -59 43 -87 108 -87 60 0 89 13 89 40 0 16 -7 20 -35 20 -32 0
-35 2 -35 30 l0 30 70 0 70 0 0 -84 c0 -81 -1 -84 -25 -88 -13 -3 -26 -2 -27
3 -2 4 -28 1 -58 -7 -61 -16 -106 -11 -163 18 -72 36 -98 145 -54 228 41 78
131 107 242 79z m619 2 c66 -11 96 -45 96 -106 0 -35 -6 -52 -30 -79 l-31 -34
31 -52 c16 -28 30 -55 30 -60 0 -6 -16 -10 -35 -10 -31 0 -38 6 -72 58 -36 53
-41 57 -81 60 l-42 3 0 -55 0 -56 -39 0 -39 0 0 162 c-1 89 1 165 4 170 7 10
143 9 208 -1z m683 -156 c39 -88 72 -166 72 -172 1 -9 -13 -13 -40 -13 -36 0
-41 3 -55 35 l-14 35 -81 0 -80 0 -15 -35 c-13 -32 -18 -35 -54 -35 -22 0 -40
3 -40 6 0 7 116 277 137 317 13 25 19 28 56 25 l42 -3 72 -160z m626 144 c75
-34 75 -163 0 -198 -15 -8 -61 -16 -101 -19 l-74 -5 7 -48 7 -49 -46 0 -46 0
0 163 c0 90 3 167 8 172 11 11 213 -2 245 -16z m437 -49 l0 -70 80 0 80 0 0
70 0 70 40 0 40 0 0 -170 0 -170 -40 0 -40 0 0 65 0 65 -80 0 -80 0 0 -65 0
-65 -40 0 -40 0 0 170 0 170 40 0 40 0 0 -70z m665 -2 c22 -37 42 -67 45 -67
3 -1 22 29 43 64 36 63 39 65 77 65 22 0 40 -2 40 -6 0 -3 -29 -51 -65 -106
-61 -95 -65 -105 -65 -160 l0 -58 -35 0 -35 0 0 64 c0 63 -2 68 -65 162 -36
54 -65 101 -65 106 0 5 19 8 42 6 41 -3 44 -6 83 -70z m-5735 -3 l0 -65 85 0
85 0 0 65 0 65 35 0 35 0 0 -165 0 -165 -35 0 -35 0 0 70 0 70 -80 0 -80 0 0
-70 0 -70 -40 0 -40 0 0 165 0 165 35 0 35 0 0 -65z m1080 -555 l0 -40 50 0
50 0 0 41 c0 36 2 40 23 37 21 -3 22 -7 22 -98 0 -91 -1 -95 -22 -98 -21 -3
-23 1 -23 37 l0 41 -50 0 -50 0 0 -40 c0 -33 -3 -40 -20 -40 -19 0 -20 7 -20
100 0 93 1 100 20 100 17 0 20 -7 20 -40z m486 9 c46 -43 40 -121 -11 -155
-32 -21 -96 -20 -129 1 -14 9 -30 32 -36 51 -10 28 -9 40 7 71 10 21 29 44 43
51 34 18 97 8 126 -19z m283 25 c41 -5 61 -11 61 -20 0 -8 -11 -14 -25 -14
-23 0 -24 -3 -27 -77 -3 -72 -5 -78 -25 -81 -22 -3 -23 -1 -23 77 l0 81 -30 0
c-23 0 -30 4 -30 20 0 22 6 23 99 14z m366 -9 c52 -25 68 -80 40 -135 -19 -37
-43 -50 -95 -50 -84 0 -129 90 -79 154 36 46 80 56 134 31z m383 -7 c20 -17
-5 -40 -30 -27 -56 30 -113 -22 -86 -78 10 -22 21 -29 51 -31 32 -3 37 0 37
17 0 12 -5 20 -12 19 -6 -2 -14 5 -16 15 -3 16 2 18 35 15 36 -3 38 -5 41 -40
4 -45 -24 -68 -84 -68 -61 0 -104 38 -104 92 0 51 14 76 53 94 33 15 92 10
115 -8z m-1737 -1 c26 -20 33 -55 15 -82 -13 -20 -25 -25 -61 -25 -45 0 -45 0
-45 -35 0 -31 -3 -35 -25 -35 -25 0 -25 0 -25 95 l0 95 63 0 c34 0 69 -6 78
-13z m2063 -3 c20 -20 20 -62 1 -84 -14 -16 -14 -21 6 -54 l21 -36 -25 0 c-18
0 -31 10 -46 35 -13 22 -28 35 -41 35 -16 0 -20 -6 -20 -35 0 -28 -4 -35 -20
-35 -19 0 -20 7 -20 95 l0 95 64 0 c45 0 69 -5 80 -16z m328 -74 c20 -47 37
-88 37 -92 1 -5 -11 -8 -25 -8 -17 0 -28 6 -31 20 -4 16 -14 20 -48 20 -35 0
-45 -4 -50 -20 -4 -13 -15 -20 -31 -20 -13 0 -24 1 -24 3 0 1 13 36 28 77 16
41 32 83 35 93 5 14 15 17 39 15 31 -3 35 -8 70 -88z m311 78 c49 -39 20 -105
-50 -115 -36 -5 -42 -9 -45 -32 -2 -18 -10 -27 -25 -29 -22 -3 -23 -1 -23 92
l0 96 63 0 c35 0 70 -6 80 -12z m217 -23 c0 -35 0 -35 44 -35 l45 0 -6 35 c-5
32 -4 35 19 35 24 0 25 -3 32 -86 7 -93 4 -104 -23 -104 -19 0 -37 52 -25 71
3 5 -15 9 -40 9 l-46 0 0 -40 c0 -36 -2 -40 -25 -40 -25 0 -25 0 -25 95 0 95
0 95 25 95 22 0 25 -4 25 -35z m438 18 c-2 -14 -15 -19 -51 -21 -33 -2 -47 -7
-47 -18 0 -10 12 -14 45 -14 38 0 45 -3 45 -19 0 -16 -8 -20 -42 -23 -31 -2
-44 -8 -46 -20 -3 -15 4 -18 47 -18 44 0 51 -3 51 -20 0 -18 -7 -20 -75 -20
l-75 0 0 95 0 95 76 0 c66 0 75 -2 72 -17z m218 -18 c10 -19 21 -35 24 -35 3
0 14 16 24 35 15 27 25 35 47 35 l29 0 -35 -54 c-33 -52 -43 -77 -44 -118 -1
-12 -9 -18 -26 -18 -22 0 -25 4 -25 38 0 26 -10 53 -35 89 -19 29 -35 55 -35
58 0 3 13 5 28 5 23 0 33 -8 48 -35z"/>
<path d="M5303 6868 c4 -51 13 -113 21 -138 l14 -45 1 100 c1 103 -12 175 -31
175 -8 0 -9 -28 -5 -92z"/>
<path d="M5878 7293 c6 -2 18 -2 25 0 6 3 1 5 -13 5 -14 0 -19 -2 -12 -5z"/>
<path d="M5978 7293 c7 -3 16 -2 19 1 4 3 -2 6 -13 5 -11 0 -14 -3 -6 -6z"/>
<path d="M5828 7283 c7 -3 16 -2 19 1 4 3 -2 6 -13 5 -11 0 -14 -3 -6 -6z"/>
<path d="M5888 7263 c6 -2 18 -2 25 0 6 3 1 5 -13 5 -14 0 -19 -2 -12 -5z"/>
<path d="M5988 7263 c6 -2 18 -2 25 0 6 3 1 5 -13 5 -14 0 -19 -2 -12 -5z"/>
<path d="M5848 7253 c7 -3 16 -2 19 1 4 3 -2 6 -13 5 -11 0 -14 -3 -6 -6z"/>
<path d="M6165 7190 c10 -11 20 -20 23 -20 3 0 -3 9 -13 20 -10 11 -20 20 -23
20 -3 0 3 -9 13 -20z"/>
<path d="M6061 7196 c2 -2 15 -9 29 -15 24 -11 24 -11 6 3 -16 13 -49 24 -35
12z"/>
<path d="M6135 7150 c10 -11 20 -20 23 -20 3 0 -3 9 -13 20 -10 11 -20 20 -23
20 -3 0 3 -9 13 -20z"/>
<path d="M6170 7116 c0 -2 8 -10 18 -17 15 -13 16 -12 3 4 -13 16 -21 21 -21
13z"/>
<path d="M6206 7067 c3 -10 9 -15 12 -12 3 3 0 11 -7 18 -10 9 -11 8 -5 -6z"/>
<path d="M6232 6990 c0 -14 2 -19 5 -12 2 6 2 18 0 25 -3 6 -5 1 -5 -13z"/>
<path d="M6263 6925 c0 -27 2 -38 4 -22 2 15 2 37 0 50 -2 12 -4 0 -4 -28z"/>
<path d="M6232 6890 c0 -14 2 -19 5 -12 2 6 2 18 0 25 -3 6 -5 1 -5 -13z"/>
<path d="M6187 6738 c-32 -44 -33 -47 -7 -18 30 33 55 70 47 70 -1 0 -20 -24
-40 -52z"/>
<path d="M6174 6688 l-29 -33 33 29 c30 28 37 36 29 36 -2 0 -16 -15 -33 -32z"/>
<path d="M5895 6985 c-30 -29 -33 -74 -6 -106 14 -18 29 -24 61 -24 50 0 80
30 80 79 0 69 -86 101 -135 51z"/>
<path d="M7290 6477 l-85 -42 -3 -446 -2 -447 80 -32 c45 -18 83 -30 86 -27 3
3 -1 36 -10 74 -32 144 -47 266 -47 407 0 152 6 200 47 414 14 73 24 135 22
137 -1 2 -41 -15 -88 -38z"/>
<path d="M7062 5988 l3 -343 30 0 c28 0 30 2 30 38 -1 20 -2 174 -3 342 l-2
305 -30 0 -30 0 2 -342z"/>
<path d="M6810 6173 c0 -32 -3 -147 -7 -256 -6 -207 -3 -224 35 -209 13 4 14
39 9 254 -4 137 -9 254 -12 259 -15 23 -25 4 -25 -48z"/>
<path d="M6893 6223 c-10 -4 -13 -65 -13 -264 l0 -259 25 0 25 0 0 259 c0 264
-2 276 -37 264z"/>
<path d="M6074 6061 c-57 -24 -73 -113 -29 -156 28 -29 97 -34 132 -10 28 20
46 75 34 106 -19 52 -87 81 -137 60z"/>
<path d="M1890 3300 l0 -50 58 0 c73 0 102 23 86 68 -9 25 -14 27 -77 30 l-67
3 0 -51z"/>
<path d="M3193 3350 c-73 -31 -77 -184 -5 -211 48 -18 92 -11 124 21 28 29 30
35 26 86 -4 42 -11 61 -29 80 -28 27 -82 39 -116 24z"/>
<path d="M4393 3349 c-34 -18 -56 -74 -48 -125 11 -78 85 -115 155 -79 56 29
65 138 16 184 -28 26 -91 36 -123 20z"/>
<path d="M5680 3299 l0 -51 66 4 c68 4 84 14 84 53 0 34 -20 45 -87 45 l-63 0
0 -51z"/>
<path d="M6351 3274 c-11 -31 -21 -58 -21 -60 0 -2 23 -4 50 -4 28 0 50 2 50
5 0 9 -49 115 -53 115 -2 0 -14 -25 -26 -56z"/>
<path d="M6950 3300 c0 -56 0 -56 97 -51 27 1 53 26 53 51 0 35 -28 50 -91 50
l-59 0 0 -50z"/>
<path d="M3934 2765 c-30 -46 0 -105 55 -105 25 0 51 36 51 71 0 56 -75 81
-106 34z"/>
<path d="M4616 2774 c-20 -20 -21 -78 -1 -94 22 -18 66 -15 82 6 31 42 6 104
-42 104 -13 0 -31 -7 -39 -16z"/>
<path d="M3260 2760 c0 -29 2 -31 33 -28 27 2 32 7 32 28 0 21 -5 26 -32 28
-31 3 -33 1 -33 -28z"/>
<path d="M5310 2761 c0 -29 3 -31 36 -31 33 0 35 2 32 28 -2 22 -8 28 -35 30
-31 3 -33 1 -33 -27z"/>
<path d="M5658 2750 c-14 -34 -14 -35 10 -38 33 -5 35 0 19 39 l-14 34 -15
-35z"/>
<path d="M5960 2759 c0 -28 2 -30 33 -27 41 4 52 42 15 52 -41 11 -48 7 -48
-25z"/>
</g>
</svg>
