<?xml version="1.0" standalone="no"?>
<!DOCTYPE svg PUBLIC "-//W3C//DTD SVG 20010904//EN"
 "http://www.w3.org/TR/2001/REC-SVG-20010904/DTD/svg10.dtd">
<svg version="1.0" xmlns="http://www.w3.org/2000/svg"
 width="1024.000000pt" height="1024.000000pt" viewBox="0 0 1024.000000 1024.000000"
 preserveAspectRatio="xMidYMid meet">

<g transform="translate(0.000000,1024.000000) scale(0.100000,-0.100000)"
fill="#fff" stroke="none">
<path d="M5595 7439 c-102 -139 -345 -293 -605 -384 -224 -78 -410 -112 -662
-122 l-158 -6 0 -63 c0 -75 -17 -66 180 -89 146 -17 181 -30 217 -83 40 -60
43 -110 43 -654 l0 -520 -22 5 c-37 10 -362 55 -508 71 -255 29 -435 38 -715
38 -833 -1 -1352 -141 -1641 -444 -223 -233 -261 -466 -121 -744 56 -111 116
-191 210 -280 96 -92 297 -233 297 -208 0 4 -26 37 -58 73 -213 240 -285 383
-285 566 -1 120 20 186 89 288 133 194 379 320 784 401 195 39 268 47 525 53
525 12 1113 -53 1546 -171 376 -103 661 -245 951 -473 60 -47 111 -83 115 -80
6 7 -119 201 -203 314 l-54 73 0 867 c0 927 2 976 51 1138 50 166 124 262 244
316 l75 34 0 63 0 62 -132 0 -133 0 -30 -41z"/>
<path d="M1940 6852 l0 -79 104 -11 c139 -15 238 -39 278 -66 23 -15 40 -40
57 -81 29 -72 40 -241 40 -622 1 -134 5 -243 9 -243 5 0 55 7 113 15 139 19
436 35 694 36 116 1 235 4 265 7 l55 7 -128 44 -129 44 5 331 c2 223 8 343 16
369 7 21 28 56 48 78 43 48 100 67 234 77 l94 7 3 83 3 82 -881 0 -880 0 0
-78z"/>
<path d="M5885 6491 c-126 -74 -255 -211 -255 -271 0 -24 -10 -24 129 -4 62 8
119 13 128 10 9 -4 13 -16 11 -33 -3 -27 -6 -28 -98 -40 -52 -7 -114 -15 -137
-18 l-43 -6 0 -61 0 -60 48 6 c188 22 245 16 287 -30 49 -53 72 -266 40 -370
-12 -41 -15 -138 -15 -572 l0 -522 54 -35 c92 -58 256 -148 262 -142 3 3 -9
33 -26 66 -36 73 -83 209 -107 312 -12 54 -17 118 -16 234 0 191 14 286 114
760 39 182 81 382 95 445 13 63 24 128 24 143 0 37 -23 80 -57 107 -17 13 -20
17 -7 11 11 -5 65 -19 120 -31 77 -16 151 -22 337 -27 147 -4 237 -2 237 4 0
9 -146 66 -237 94 -35 10 -43 17 -43 36 l0 23 -397 0 -398 0 -50 -29z"/>
<path d="M6519 6285 c-40 -22 -59 -81 -59 -184 l0 -88 348 -7 c191 -3 377 -9
415 -13 66 -5 67 -5 67 18 0 42 -40 173 -65 210 -13 21 -43 46 -67 58 -42 20
-59 21 -329 21 -227 -1 -289 -4 -310 -15z"/>
<path d="M7345 6104 c19 -48 35 -110 35 -141 0 -23 4 -33 12 -31 16 6 26 41
27 96 1 49 19 56 50 17 25 -33 36 -82 22 -99 -16 -19 -3 -26 47 -26 l44 0 -7
48 c-16 111 -47 137 -172 149 -63 6 -66 5 -58 -13z"/>
<path d="M6821 5854 c-225 -67 -379 -202 -496 -439 -30 -60 -67 -155 -82 -210
-26 -92 -28 -114 -27 -280 0 -162 3 -190 26 -277 28 -101 87 -238 131 -303 22
-32 107 -86 107 -68 0 4 -18 34 -40 67 -59 92 -117 223 -142 322 -18 72 -22
119 -22 244 -1 91 5 180 12 215 76 351 301 622 597 720 44 15 82 29 84 31 13
13 -76 -1 -148 -22z"/>
<path d="M7953 5866 c-179 -41 -352 -193 -456 -401 -42 -85 -90 -233 -108
-335 -18 -98 -18 -382 0 -480 59 -329 229 -565 462 -639 62 -20 185 -29 264
-20 77 8 185 37 185 50 0 3 -19 9 -42 13 -147 24 -306 176 -387 371 -108 259
-117 565 -24 859 89 284 280 475 492 493 39 3 71 9 71 13 0 11 -67 36 -160 60
-108 28 -219 33 -297 16z"/>
<path d="M7075 5850 c-169 -25 -316 -103 -445 -234 -120 -122 -195 -260 -248
-455 -23 -86 -26 -115 -26 -271 0 -149 3 -188 22 -260 43 -166 166 -376 237
-406 46 -19 307 -95 312 -90 2 2 -13 27 -33 57 -256 380 -255 984 2 1370 63
95 174 205 252 249 34 19 62 38 62 43 0 9 -66 7 -135 -3z"/>
<path d="M7642 5841 c-211 -73 -413 -361 -483 -691 -30 -142 -33 -412 -6 -540
59 -275 180 -476 334 -552 66 -32 165 -49 177 -30 3 5 -16 26 -42 46 -172 133
-286 422 -299 756 -11 286 41 508 170 726 57 97 200 251 255 273 76 32 -19 42
-106 12z"/>
<path d="M7369 5840 c-101 -10 -181 -52 -275 -145 -139 -137 -229 -309 -279
-532 -22 -97 -31 -371 -15 -486 23 -173 84 -340 168 -465 65 -94 72 -98 213
-105 67 -4 124 -5 126 -3 2 2 -14 28 -36 57 -83 109 -154 288 -187 470 -22
124 -22 352 0 479 56 316 226 600 420 702 30 15 36 22 25 29 -16 10 -49 10
-160 -1z"/>
<path d="M5716 5734 c-20 -20 -20 -44 1 -73 15 -22 20 -23 90 -17 98 8 113 17
113 66 l0 40 -94 0 c-73 0 -98 -4 -110 -16z"/>
<path d="M8304 5721 c-67 -17 -132 -58 -199 -126 -116 -116 -184 -251 -227
-450 -17 -81 -21 -134 -21 -275 0 -155 3 -186 26 -271 52 -198 131 -334 244
-424 192 -151 406 -100 565 135 131 193 192 455 169 716 -30 326 -159 583
-336 669 -56 28 -165 41 -221 26z m175 -61 c72 -36 135 -110 191 -223 186
-377 139 -925 -101 -1182 -117 -125 -229 -155 -355 -96 -64 30 -158 112 -184
160 -10 20 -5 18 36 -13 83 -64 115 -61 198 15 121 110 200 249 242 421 l24
103 -4 -130 c-3 -71 -8 -145 -12 -162 -11 -53 10 -38 34 25 l22 57 -4 -55 c-8
-106 -66 -229 -155 -332 -39 -44 -42 -50 -20 -43 111 33 210 178 265 390 84
320 6 693 -187 899 -69 74 -154 130 -190 124 -17 -2 -12 -9 30 -40 57 -43 142
-141 171 -199 11 -21 18 -39 15 -39 -3 0 -32 20 -65 44 -76 56 -156 87 -242
94 -65 4 -128 -9 -128 -29 0 -4 27 -27 61 -49 65 -45 138 -134 174 -215 40
-87 39 -102 -2 -40 -44 67 -145 165 -150 148 -2 -6 5 -29 15 -50 34 -65 82
-213 91 -277 10 -69 -1 -162 -25 -208 -26 -50 -101 -115 -176 -153 -92 -46
-112 -45 -51 4 78 62 132 129 148 185 25 91 28 140 11 205 -27 104 -88 174
-189 216 -35 14 -38 19 -33 43 4 15 29 73 56 129 73 148 182 255 300 294 43
14 142 3 189 -21z m-441 -617 c31 -103 5 -188 -83 -282 l-63 -66 -7 49 c-14
93 9 402 33 440 10 16 107 -98 120 -141z"/>
<path d="M2835 5135 c-122 -14 -351 -56 -399 -75 l-27 -10 3 -647 c3 -603 2
-652 -15 -713 -10 -35 -25 -77 -33 -92 -28 -53 -137 -88 -278 -88 -39 0 -88
-3 -108 -6 l-38 -7 0 -83 0 -84 878 2 877 3 3 83 c3 101 11 96 -186 112 -79 6
-150 14 -157 16 -16 6 -31 42 -45 104 -6 28 -10 325 -10 773 l0 727 -172 -1
c-95 -1 -227 -7 -293 -14z"/>
<path d="M4380 5046 c0 -3 52 -39 115 -82 l115 -78 0 -601 0 -602 -28 -39
c-37 -51 -97 -103 -140 -121 -18 -8 -79 -16 -135 -19 -56 -3 -117 -7 -134 -10
l-33 -5 0 -79 0 -80 1348 -3 c1190 -2 1353 -4 1397 -18 122 -39 182 -94 204
-187 14 -59 31 -219 31 -295 l0 -58 78 3 77 3 3 618 2 617 -79 0 -78 0 -12
-60 c-8 -42 -20 -68 -40 -88 -57 -57 -43 -56 -828 -59 l-723 -4 0 244 0 244
-52 69 c-57 76 -167 209 -219 265 -164 176 -453 332 -754 405 -104 25 -115 27
-115 20z"/>
<path d="M5462 4618 c13 -18 63 -87 110 -153 216 -302 382 -430 618 -479 75
-15 380 -34 369 -23 -3 4 -59 25 -125 47 -306 105 -544 253 -870 542 -62 54
-115 98 -119 98 -4 0 4 -15 17 -32z"/>
</g>
</svg>
