<?xml version="1.0" standalone="no"?>
<!DOCTYPE svg PUBLIC "-//W3C//DTD SVG 20010904//EN"
 "http://www.w3.org/TR/2001/REC-SVG-20010904/DTD/svg10.dtd">
<svg version="1.0" xmlns="http://www.w3.org/2000/svg"
 width="720.000000pt" height="1280.000000pt" viewBox="0 0 720.000000 1280.000000"
 preserveAspectRatio="xMidYMid meet">

<g transform="translate(0.000000,1280.000000) scale(0.100000,-0.100000)"
fill="#000000" stroke="none">
<path d="M0 6400 l0 -6400 3600 0 3600 0 0 6400 0 6400 -3600 0 -3600 0 0
-6400z m2798 2078 l3 -58 -53 0 c-148 0 -277 -47 -347 -126 -73 -84 -71 -57
-71 -811 l0 -673 108 0 109 0 64 52 c82 66 147 107 241 154 l75 37 6 326 c6
326 20 493 51 591 13 40 14 -4 15 -426 l1 -471 -47 -30 c-27 -17 -73 -43 -103
-58 -69 -34 -209 -126 -234 -154 l-19 -21 253 0 253 0 -43 46 c-23 25 -51 66
-62 91 -17 39 -19 51 -9 84 14 45 42 68 162 133 114 61 145 60 100 -2 -21 -30
-143 -95 -208 -112 -32 -8 -43 -16 -43 -31 0 -35 43 -113 90 -161 l46 -48 457
0 457 0 0 273 0 272 -137 70 c-332 171 -656 389 -844 570 l-70 66 3 121 3 120
80 -66 c113 -94 321 -236 525 -358 167 -100 427 -248 436 -248 9 0 3 537 -6
571 -37 132 -161 210 -336 211 l-92 0 -6 30 c-3 17 -6 46 -6 64 l0 34 740 0
740 0 0 -65 0 -65 -122 3 c-141 2 -208 -13 -276 -63 -59 -43 -91 -96 -103
-171 -6 -39 -8 -343 -7 -763 l3 -699 100 -72 100 -72 200 -6 c199 -6 234 -11
445 -61 139 -33 99 -33 -70 0 -130 25 -144 26 -380 20 l-245 -6 -75 50 -75 50
-3 -283 -3 -282 33 -28 c66 -56 216 -150 327 -205 137 -67 186 -75 289 -43 63
19 210 103 226 130 14 22 26 10 26 -28 l0 -38 -103 -41 c-142 -57 -213 -72
-343 -72 -128 0 -238 18 -362 61 -48 16 -88 29 -90 29 -1 0 -1 -229 0 -509 3
-587 -4 -546 104 -590 55 -23 74 -25 276 -29 289 -6 438 15 576 80 117 55 220
183 272 338 18 51 24 102 30 240 8 185 17 223 67 310 34 57 105 134 161 172
48 33 112 62 112 50 0 -4 -18 -30 -41 -57 -23 -27 -54 -76 -71 -109 -55 -109
-58 -142 -58 -708 l0 -518 -1185 0 -1185 0 0 63 0 63 83 11 c140 19 264 79
307 148 12 20 23 59 27 98 5 58 4 65 -13 70 -54 16 -251 40 -339 41 -118 1
-175 -15 -249 -72 -27 -20 -55 -41 -62 -47 -10 -7 -24 0 -50 25 -135 128 -214
384 -200 649 3 69 9 141 12 160 l7 34 -119 -6 c-133 -6 -209 -25 -408 -102
-106 -41 -128 -46 -210 -48 l-91 -2 0 -200 c0 -232 8 -268 82 -346 64 -69 200
-118 326 -119 l47 0 0 -70 0 -71 -62 8 c-35 4 -357 7 -716 6 l-653 -1 3 61 3
62 105 6 c181 9 275 56 318 157 21 49 22 60 24 808 l3 759 -185 6 c-102 3
-186 7 -188 8 -2 0 -2 31 0 68 l3 68 65 12 c36 7 118 12 182 13 l117 0 5 33
c3 17 5 329 3 692 l-2 660 -27 57 c-47 101 -157 158 -304 159 -46 0 -88 -2
-94 -6 -6 -4 -10 16 -10 54 0 67 -9 59 90 74 14 3 320 4 680 3 l655 -1 3 -57z
m2790 -2005 c-10 -2 -28 -2 -40 0 -13 2 -5 4 17 4 22 1 32 -1 23 -4z m125 0
c-7 -2 -19 -2 -25 0 -7 3 -2 5 12 5 14 0 19 -2 13 -5z m-4095 -2410 l3 -53 65
0 64 0 0 50 c0 47 2 50 25 50 l26 0 -3 -132 -3 -133 -25 0 c-24 0 -25 3 -25
57 l0 57 -63 3 -62 3 0 -58 c0 -58 0 -58 -27 -55 -26 3 -28 7 -31 53 -2 28 -1
87 3 133 6 78 8 83 28 80 19 -3 22 -10 25 -55z m544 47 c65 -18 111 -99 94
-165 -11 -43 -57 -85 -104 -96 -118 -26 -212 61 -182 169 12 46 35 69 87 88
47 16 58 17 105 4z m796 -21 c31 -19 52 -69 52 -123 0 -95 -105 -153 -202
-113 -89 37 -105 163 -29 231 39 35 126 38 179 5z m1732 -24 l0 -55 60 0 60 0
0 56 c0 52 1 55 23 52 21 -3 22 -7 25 -135 l3 -133 -26 0 c-24 0 -25 2 -25 60
l0 60 -60 0 -60 0 0 -60 0 -60 -30 0 -30 0 0 128 c0 71 3 132 7 135 3 4 17 7
30 7 21 0 23 -4 23 -55z m-3315 20 c29 -28 31 -45 10 -84 -17 -33 -33 -41 -86
-41 l-39 0 0 -55 c0 -54 0 -55 -30 -55 l-30 0 0 130 0 130 75 0 c67 0 79 -3
100 -25z m1235 5 c0 -17 -7 -20 -45 -20 l-45 0 0 -110 0 -110 -25 0 -25 0 0
110 0 110 -40 0 c-22 0 -40 2 -40 4 0 2 -3 11 -6 20 -5 14 8 16 110 16 109 0
116 -1 116 -20z m774 7 c22 -16 11 -52 -13 -41 -9 4 -35 9 -58 12 -57 5 -93
-28 -93 -88 0 -58 33 -90 95 -90 43 0 45 1 45 29 0 25 -4 30 -27 33 -20 2 -29
9 -31 26 -3 22 -1 23 50 20 l53 -3 3 -63 c3 -59 2 -63 -23 -72 -15 -6 -50 -10
-79 -10 -70 0 -115 30 -136 88 -13 37 -13 47 0 84 21 60 66 88 140 88 31 0 64
-6 74 -13z m361 -12 c14 -13 25 -31 25 -39 0 -27 -23 -65 -42 -72 -19 -6 -19
-6 0 -38 11 -18 27 -45 37 -59 l17 -27 -31 0 c-28 0 -34 6 -58 55 -35 70 -51
71 -55 3 -3 -46 -6 -53 -25 -56 -23 -3 -23 -3 -23 127 l0 131 65 0 c57 0 69
-3 90 -25z m319 -20 c21 -44 86 -204 86 -211 0 -2 -11 -4 -23 -4 -16 0 -28 9
-35 25 -10 22 -18 25 -67 25 -50 0 -56 -2 -65 -25 -10 -26 -50 -36 -50 -12 0
6 17 57 38 112 22 55 42 108 45 118 12 32 50 17 71 -28z m387 34 c31 -16 41
-54 25 -94 -15 -35 -24 -39 -93 -50 l-43 -7 0 -49 c0 -46 -2 -49 -25 -49 l-25
0 0 130 0 130 71 0 c39 0 79 -5 90 -11z m777 -6 c-2 -14 -15 -19 -61 -21 l-57
-3 0 -34 0 -35 55 0 c48 0 55 -2 55 -20 0 -18 -7 -20 -55 -20 l-55 0 0 -35 0
-35 55 0 c48 0 55 -2 55 -20 0 -18 -7 -20 -85 -20 l-85 0 0 130 0 130 91 0
c81 0 90 -2 87 -17z m327 -8 c32 -31 31 -56 -2 -95 l-27 -32 27 -48 c33 -59
33 -60 3 -60 -28 0 -34 7 -57 65 -11 26 -24 41 -38 43 -19 3 -21 -1 -21 -52 0
-53 -1 -56 -25 -56 l-25 0 0 130 0 130 70 0 c62 0 74 -3 95 -25z m330 12 c24
-18 6 -30 -49 -31 -34 -1 -41 -4 -41 -21 0 -14 13 -26 41 -40 23 -11 49 -26
58 -34 24 -21 20 -68 -10 -98 -23 -23 -31 -25 -81 -21 -55 5 -76 19 -66 45 4
9 12 11 22 7 9 -4 33 -9 53 -12 29 -3 39 0 45 13 9 24 -8 47 -43 58 -73 24
-97 87 -48 126 31 24 91 28 119 8z m-1395 -458 c0 -29 1 -29 55 -29 l55 0 0
35 c0 19 5 35 10 35 6 0 10 -37 10 -90 0 -53 -4 -90 -10 -90 -5 0 -10 20 -10
45 l0 45 -55 0 -55 0 0 -40 c0 -26 -5 -40 -13 -40 -9 0 -13 21 -14 77 -1 43 1
81 4 86 9 15 23 -5 23 -34z m424 20 c-3 -5 -27 -9 -55 -9 -46 0 -49 -2 -49
-25 0 -23 4 -25 53 -26 l52 -2 -52 -10 c-49 -9 -53 -12 -53 -38 0 -28 1 -29
56 -29 34 0 53 -4 49 -10 -3 -5 -33 -10 -65 -10 l-59 0 -3 86 c-2 47 -2 86 -1
87 6 7 132 -7 127 -14z m-2923 1 c42 -23 10 -90 -43 -90 -25 0 -28 -3 -28 -35
0 -19 -4 -35 -10 -35 -6 0 -10 35 -10 85 l0 85 36 0 c19 0 44 -5 55 -10z m189
-20 c0 -29 1 -30 50 -30 49 0 50 1 50 31 0 18 5 29 11 27 10 -3 13 -41 10
-135 -1 -47 -21 -41 -21 6 l0 38 -47 6 c-27 3 -50 4 -51 2 -2 -2 -6 -22 -9
-44 -10 -71 -23 -45 -23 44 0 69 3 85 15 85 10 0 15 -10 15 -30z m425 4 c57
-62 12 -144 -79 -144 -78 0 -119 103 -60 149 40 32 108 29 139 -5z m290 16
c-3 -5 -19 -10 -36 -10 l-29 0 0 -75 c0 -43 -4 -75 -10 -75 -6 0 -10 32 -10
75 l0 75 -30 0 c-16 0 -30 5 -30 10 0 6 32 10 76 10 47 0 73 -4 69 -10z m270
-15 c35 -34 33 -78 -4 -116 -31 -30 -61 -36 -106 -19 -34 13 -59 69 -46 104
23 58 112 76 156 31z m315 12 c0 -10 -13 -13 -54 -9 -47 4 -55 2 -70 -19 -39
-56 -3 -112 67 -107 37 3 42 6 42 28 0 17 -7 26 -25 31 -21 6 -20 7 13 8 37 1
37 1 37 -38 0 -45 -10 -51 -76 -51 -58 0 -94 32 -94 85 0 56 35 85 105 85 39
0 55 -4 55 -13z m254 -3 c21 -21 20 -37 -4 -59 -19 -17 -19 -18 -1 -44 30 -44
33 -51 19 -51 -7 0 -23 16 -36 35 -29 46 -52 46 -52 0 0 -19 -4 -35 -10 -35
-6 0 -10 35 -10 85 l0 85 39 0 c23 0 46 -7 55 -16z m266 13 c0 -2 13 -40 30
-85 16 -45 25 -82 20 -82 -6 0 -15 10 -21 23 -9 19 -18 23 -52 22 -33 -1 -44
-5 -52 -23 -5 -12 -15 -22 -22 -22 -17 0 -17 0 8 57 11 26 27 63 34 81 9 21
21 32 34 32 12 0 21 -1 21 -3z m298 -9 c32 -32 -2 -88 -54 -88 -32 0 -33 -1
-27 -35 4 -28 2 -35 -11 -35 -13 0 -16 13 -16 85 l0 85 48 0 c26 0 53 -5 60
-12z m903 2 c23 -13 25 -52 4 -70 -14 -11 -13 -17 5 -47 23 -39 24 -43 10 -43
-5 0 -20 16 -32 35 -30 45 -48 45 -48 0 0 -24 -5 -35 -15 -35 -12 0 -15 16
-15 85 l0 85 36 0 c19 0 44 -5 55 -10z m279 -3 c0 -9 -11 -12 -35 -9 -50 6
-48 -26 3 -53 41 -22 54 -62 28 -84 -18 -15 -88 -10 -94 6 -2 9 5 11 27 7 34
-7 63 9 55 31 -3 7 -19 19 -35 25 -66 28 -58 90 11 90 26 0 40 -5 40 -13z"/>
<path d="M2330 6306 l0 -336 42 -21 c144 -74 255 -98 518 -114 142 -8 227 -18
251 -28 l35 -14 38 91 c21 50 67 141 101 201 35 61 67 126 72 145 19 70 -15
136 -107 209 -57 45 -215 127 -320 167 -74 28 -77 28 -352 32 l-278 4 0 -336z"/>
<path d="M3585 6630 l-289 -5 69 -32 c39 -17 140 -52 225 -78 179 -54 264 -88
372 -151 42 -24 80 -44 83 -44 3 0 4 71 3 158 l-3 157 -85 0 c-47 1 -215 -2
-375 -5z"/>
<path d="M3288 6513 c125 -64 268 -140 317 -168 77 -45 94 -51 115 -43 14 6
79 13 145 17 l120 6 -92 48 c-123 64 -194 89 -408 148 -99 27 -209 63 -244 79
-47 23 -78 30 -122 30 l-59 0 228 -117z"/>
<path d="M3765 6293 c-44 -7 -50 -18 -21 -41 33 -25 32 -29 -2 -37 -45 -10
-87 -62 -141 -175 -140 -297 -214 -666 -166 -828 17 -57 54 -92 123 -116 40
-14 456 -106 480 -106 9 0 12 155 12 640 l0 640 -25 10 c-29 11 -216 21 -260
13z"/>
<path d="M4570 5947 c0 -60 4 -88 14 -96 50 -42 300 -101 420 -101 l61 1 -60
23 c-124 48 -272 133 -398 230 l-37 28 0 -85z"/>
<path d="M2083 4073 c-34 -6 -63 -50 -63 -95 0 -54 35 -88 89 -88 54 0 69 7
87 42 39 75 -27 156 -113 141z"/>
<path d="M2809 4044 c-31 -33 -33 -102 -5 -133 25 -27 77 -36 113 -19 54 26
61 120 12 161 -33 26 -91 22 -120 -9z"/>
<path d="M1260 4035 c0 -36 0 -36 38 -33 34 3 37 6 37 33 0 27 -3 30 -37 33
-38 3 -38 3 -38 -33z"/>
<path d="M3640 4035 c0 -35 1 -36 33 -33 28 3 32 6 32 33 0 27 -4 30 -32 33
-32 3 -33 2 -33 -33z"/>
<path d="M4007 4006 c-23 -66 -22 -66 19 -66 34 0 36 2 30 26 -4 15 -13 41
-20 58 l-12 31 -17 -49z"/>
<path d="M4340 4036 c0 -35 1 -36 40 -36 70 0 67 62 -4 68 -35 3 -36 2 -36
-32z"/>
<path d="M5440 4035 c0 -36 0 -36 38 -33 34 3 37 6 37 33 0 27 -3 30 -37 33
-38 3 -38 3 -38 -33z"/>
<path d="M1920 3620 c0 -29 2 -31 33 -28 27 2 32 7 32 28 0 21 -5 26 -32 28
-31 3 -33 1 -33 -28z"/>
<path d="M2480 3630 c-60 -60 27 -144 98 -94 26 18 30 74 6 98 -22 23 -80 20
-104 -4z"/>
<path d="M3047 3632 c-37 -41 -6 -112 48 -112 30 0 75 41 75 67 0 10 -7 29
-16 41 -20 28 -83 31 -107 4z"/>
<path d="M3660 3620 c0 -25 4 -30 25 -30 25 0 46 26 38 48 -3 6 -18 12 -34 12
-26 0 -29 -4 -29 -30z"/>
<path d="M3962 3624 c-5 -16 -13 -36 -16 -44 -5 -11 2 -15 29 -17 33 -1 35 0
29 20 -3 12 -12 33 -19 46 l-12 24 -11 -29z"/>
<path d="M4217 3653 c-4 -3 -7 -19 -7 -35 0 -27 3 -29 31 -26 43 4 61 34 35
54 -21 15 -48 18 -59 7z"/>
<path d="M5140 3620 c0 -23 5 -30 19 -30 24 0 45 25 37 45 -3 8 -17 15 -31 15
-21 0 -25 -5 -25 -30z"/>
</g>
</svg>
